<?xml version="1.0" encoding="UTF-8" standalone="no"?>
<!-- Created with Inkscape (http://www.inkscape.org/) -->

<svg
   version="1.1"
   id="svg5426"
   width="1532"
   height="1532"
   viewBox="0 0 1532 1532"
   sodipodi:docname="logo_100px.svg"
   inkscape:version="1.1 (c68e22c387, 2021-05-23)"
   inkscape:export-filename="C:\Users\tutko\OneDrive\Dokumenty\webovska grafika\projekt\praca2.png"
   inkscape:export-xdpi="96"
   inkscape:export-ydpi="96"
   xmlns:inkscape="http://www.inkscape.org/namespaces/inkscape"
   xmlns:sodipodi="http://sodipodi.sourceforge.net/DTD/sodipodi-0.dtd"
   xmlns="http://www.w3.org/2000/svg"
   xmlns:svg="http://www.w3.org/2000/svg">
  <defs
     id="defs5430">
    <inkscape:path-effect
       effect="spiro"
       id="path-effect4297"
       is_visible="true"
       lpeversion="1" />
  </defs>
  <sodipodi:namedview
     id="namedview5428"
     pagecolor="#ffffff"
     bordercolor="#666666"
     borderopacity="1.0"
     inkscape:pageshadow="2"
     inkscape:pageopacity="1"
     inkscape:pagecheckerboard="0"
     showgrid="false"
     inkscape:zoom="0.41053452"
     inkscape:cx="651.58954"
     inkscape:cy="753.89519"
     inkscape:window-width="1920"
     inkscape:window-height="1001"
     inkscape:window-x="-9"
     inkscape:window-y="-9"
     inkscape:window-maximized="1"
     inkscape:current-layer="g5432"
     showguides="false"
     inkscape:snap-global="false"
     inkscape:snap-bbox="false"
     inkscape:guide-bbox="true">
    <inkscape:grid
       type="xygrid"
       id="grid115"
       empspacing="20"
       empcolor="#ad1e50"
       empopacity="0.16862745"
       dotted="false"
       spacingx="2"
       spacingy="2" />
    <sodipodi:guide
       position="1024,1132"
       orientation="0,-1"
       id="guide3015" />
    <sodipodi:guide
       position="1042,714"
       orientation="1,0"
       id="guide3017" />
    <sodipodi:guide
       position="1097,1019"
       orientation="1,0"
       id="guide3021" />
    <sodipodi:guide
       position="1097,1019"
       orientation="0,-1"
       id="guide3156" />
    <sodipodi:guide
       position="1059,965"
       orientation="0,-1"
       id="guide3576" />
    <sodipodi:guide
       position="1063,885"
       orientation="0,-1"
       id="guide3578" />
    <sodipodi:guide
       position="1064,830"
       orientation="0,-1"
       id="guide3618" />
    <sodipodi:guide
       position="1076,712"
       orientation="0,-1"
       id="guide3867" />
    <sodipodi:guide
       position="914,1036"
       orientation="1,0"
       id="guide17152" />
    <sodipodi:guide
       position="968,1024"
       orientation="1,0"
       id="guide17458" />
    <sodipodi:guide
       position="1064,1066"
       orientation="0,-1"
       id="guide17840" />
    <sodipodi:guide
       position="1166,1024"
       orientation="1,0"
       id="guide17880" />
    <sodipodi:guide
       position="1224,1036"
       orientation="1,0"
       id="guide18072" />
    <sodipodi:guide
       position="880,900"
       orientation="1,0"
       id="guide18074" />
    <sodipodi:guide
       position="1256,900"
       orientation="1,0"
       id="guide18076" />
    <sodipodi:guide
       position="948,888"
       orientation="1,0"
       id="guide18154" />
    <sodipodi:guide
       position="1192,888"
       orientation="1,0"
       id="guide18422" />
    <sodipodi:guide
       position="880,900"
       orientation="0,-1"
       id="guide18652" />
    <sodipodi:guide
       position="880,812"
       orientation="0,-1"
       id="guide18730" />
    <sodipodi:guide
       position="1188,888"
       orientation="1,0"
       id="guide19302" />
    <sodipodi:guide
       position="570.8306,370.25934"
       orientation="0,-1"
       id="guide10548" />
  </sodipodi:namedview>
  <g
     inkscape:groupmode="layer"
     inkscape:label="Image"
     id="g5432">
    <g
       id="g819"
       transform="matrix(1.0763741,0,0,1.0963437,-150.72318,-7.6873262)"
       inkscape:export-filename="C:\Users\tutko\OneDrive\Dokumenty\webovska grafika\projekt\logo\100px.png"
       inkscape:export-xdpi="96"
       inkscape:export-ydpi="96"
       style="stroke:none;stroke-opacity:1;stroke-width:0.99971186;stroke-miterlimit:4;stroke-dasharray:none;fill:#a81118;fill-opacity:1">
      <g
         id="g3294"
         style="fill:#a81118;fill-opacity:1;stroke:none;stroke-opacity:1;stroke-width:0.99971186;stroke-miterlimit:4;stroke-dasharray:none"
         transform="translate(-15.29813,163.57093)">
        <path
           style="color:#000000;fill:#a81118;fill-opacity:1;stroke-width:0.99971186;stroke:none;stroke-opacity:1;stroke-miterlimit:4;stroke-dasharray:none"
           d="m 856.12797,124.00297 -1.87316,0.78477 c -26.69942,11.16689 -50.06478,28.40417 -72.18637,45.07783 l -0.13591,0.10222 -0.12936,0.10851 C 710.98825,229.73634 660.71672,308.50638 624.66511,390.7584 604.70845,429.7992 558.03287,450.895 513.3834,448.22112 l -0.35205,-0.0204 -0.35204,0.0157 c -45.79956,2.18989 -91.37863,-15.40272 -122.64222,-47.65547 l -0.79417,-0.81778 -1.04468,-0.49068 c -3.17225,-1.49132 -7.82573,-6.3093 -12.35281,-12.51699 -4.52708,-6.20769 -9.11826,-13.588 -14.08684,-19.95421 -4.9686,-6.36622 -10.20899,-12.30592 -18.24595,-13.90252 -4.01848,-0.7983 -8.55627,-0.004 -12.39211,2.24421 -3.83584,2.24804 -7.15147,5.69913 -10.41409,10.40488 l 0.19322,-0.26263 c -11.26252,14.49986 -22.88583,31.6261 -29.78494,50.18433 -6.8991,18.55822 -9.00124,38.86204 -0.47976,58.48024 l 0.87438,2.01303 2.01241,1.01124 5.30365,2.66727 1.66856,-0.0597 c 43.69275,-1.54698 86.83212,11.26314 128.58939,25.87693 l 0.40772,0.14154 0.42245,0.0881 c 10.79544,2.23019 21.96078,10.56948 27.71031,20.4952 5.66037,9.77177 6.50407,20.02154 -1.08071,29.24563 -31.22208,24.59612 -72.14241,35.98239 -111.4258,49.80374 l -0.71063,0.25006 -0.62715,0.40418 c -1.90589,1.2271 -7.02649,2.76057 -13.06509,3.85151 -6.0386,1.09094 -13.01656,1.97983 -19.51986,3.3388 -6.5033,1.35897 -12.6515,2.88928 -17.44031,7.10067 -2.39443,2.1057 -4.33254,5.21449 -4.72893,8.6938 -0.39636,3.4793 0.59363,6.95227 2.43324,10.35297 l 0.71227,1.31633 1.26575,0.84926 c 43.44301,29.16099 99.2853,22.48398 145.40257,9.58393 70.17628,-10.24784 145.62683,-33.88614 191.23273,-91.40123 26.25347,-0.51745 57.32828,0.5545 80.99081,-18.3312 l 0.0672,-0.0534 0.0655,-0.0551 c 8.03572,-6.78204 12.49385,-12.58733 12.28404,-19.35188 -0.1049,-3.38228 -1.67238,-6.43391 -3.62201,-8.6419 -1.94963,-2.20797 -4.2434,-3.80605 -6.61687,-5.2386 -4.74693,-2.8651 -10.00425,-5.11389 -14.18183,-7.5882 -2.71723,-1.60937 -4.72209,-3.22131 -6.08798,-4.81242 36.34277,-43.78012 50.25035,-98.59236 64.12359,-150.13466 l 0.0753,-0.27836 0.0475,-0.28466 c 10.48443,-63.31028 38.9908,-123.59993 83.24876,-171.57977 l 0.92678,-1.00494 0.39626,-1.28804 c 0.0555,-0.17981 2.70588,-3.89724 6.61029,-7.48597 3.90448,-3.58873 8.7987,-7.60873 13.03235,-11.67088 4.23371,-4.06216 8.28869,-7.68447 9.33182,-13.72167 0.52153,-3.0186 -0.64511,-6.96752 -3.19304,-9.32445 -2.548,-2.35691 -5.68091,-3.479 -9.44803,-4.27927 z m 1.11346,12.77805 c 0.14741,0.0529 0.39289,0.10793 0.51577,0.15727 -0.65151,1.02044 -2.23654,3.41389 -5.21361,6.27028 -3.71444,3.564 -8.55582,7.5515 -12.83907,11.48846 -3.83008,3.52031 -7.33205,6.63755 -9.2662,11.18965 -45.49937,49.60201 -74.72705,111.57407 -85.5724,176.62652 -14.23487,52.8907 -28.29105,107.08631 -64.29716,148.57614 l -2.29404,2.64211 1.19697,3.2413 c 2.40709,6.5217 7.81939,10.54018 12.98649,13.60056 5.1671,3.06039 10.51438,5.37554 14.09177,7.53473 1.78869,1.0796 3.08609,2.10848 3.71697,2.82296 0.63088,0.71448 0.63229,0.8814 0.64187,1.19052 0.0191,0.61616 -1.1153,4.07323 -7.95792,9.86545 -19.87516,15.804 -48.63863,14.84836 -76.12271,15.54913 l -3.07839,0.0787 -1.82245,2.38105 c -42.4075,55.42586 -115.63646,78.9497 -185.38382,89.08623 l -0.41754,0.0613 -0.40609,0.11323 c -44.12691,12.39272 -95.18205,17.9366 -133.63597,-6.90722 -0.42273,-1.08769 -0.59004,-1.89208 -0.55673,-2.18446 0.0461,-0.40404 0.0447,-0.50644 0.71883,-1.09931 1.34835,-1.18576 5.86126,-3.00146 11.62251,-4.20535 5.76128,-1.20391 12.65246,-2.09539 19.16945,-3.27276 6.08195,-1.09878 11.78465,-2.30541 16.67237,-5.12381 38.82033,-13.64273 81.4932,-25.18605 115.38185,-52.13289 l 0.46667,-0.36958 0.3848,-0.44979 c 11.38482,-13.32555 10.21738,-30.18935 2.66901,-43.22049 -7.42597,-12.81982 -20.56297,-22.94713 -35.33257,-26.23708 -41.56172,-14.54179 -85.60561,-27.79446 -131.44835,-26.55476 l -0.30129,-0.15098 c -6.13849,-15.66365 -4.53732,-31.79194 1.42784,-47.83789 6.20996,-16.70443 17.12935,-33.0003 28.02142,-47.02323 l 0.10152,-0.13054 0.0933,-0.13367 c 2.61504,-3.77175 4.91842,-5.86394 6.49734,-6.78929 1.57892,-0.92534 2.25197,-0.93336 3.29288,-0.72657 2.0818,0.41356 6.3564,3.71415 10.73011,9.31815 4.3737,5.604 8.95224,12.92223 13.85107,19.63968 4.57974,6.27988 9.34345,12.12797 15.81598,15.64033 33.76913,34.51924 82.45324,53.24898 131.64484,50.98169 49.16078,2.80131 100.48365,-20.21177 122.96808,-64.2457 l 0.0802,-0.1557 0.0704,-0.16198 c 35.53093,-81.14583 84.93074,-158.3588 153.85338,-216.46573 21.38098,-16.11313 43.31833,-32.08811 67.26255,-42.47662 z"
           id="path5488" />
      </g>
      <g
         aria-label="IDES"
         id="text11158"
         style="font-size:306.667px;font-family:'Heisei Kaku Gothic Std';-inkscape-font-specification:'Heisei Kaku Gothic Std';letter-spacing:3.05px;fill:#a81118;fill-opacity:1;stroke:none;stroke-opacity:1;stroke-width:0.99971186;stroke-miterlimit:4;stroke-dasharray:none"
         transform="translate(205.47089,-194.65626)">
        <path
           style="color:#000000;-inkscape-font-specification:'Heisei Kaku Gothic Std';fill:#a81118;fill-opacity:1;stroke:none;stroke-opacity:1;stroke-width:0.99971186;stroke-miterlimit:4;stroke-dasharray:none"
           d="m 581.11648,956.31463 v 206.69357 h 34.96004 V 956.31463 Z"
           id="path159" />
        <path
           style="color:#000000;-inkscape-font-specification:'Heisei Kaku Gothic Std';fill:#a81118;fill-opacity:1;stroke:none;stroke-opacity:1;stroke-width:0.99971186;stroke-miterlimit:4;stroke-dasharray:none"
           d="m 667.2732,1162.3948 c 14.10668,1.84 31.5867,2.76 54.58673,2.76 43.24004,0 78.20008,-10.4266 99.97344,-30.36 20.24002,-19.0133 32.5067,-46.3067 32.5067,-80.3467 0,-32.8134 -11.96001,-57.34676 -32.20004,-74.21345 -20.24002,-17.17335 -49.06672,-25.76003 -90.77343,-25.76003 -23.61335,0 -46.00004,1.84001 -64.0934,4.60001 z m 34.96004,-177.86681 c 6.74667,-1.53334 16.86668,-2.76 31.28003,-2.76 54.58673,0 84.02676,26.68001 83.72009,74.21341 0,50.9067 -31.28003,81.8801 -88.93343,81.5734 -9.81334,0 -19.62668,0 -26.06669,-1.2266 z"
           id="path161" />
        <path
           style="color:#000000;-inkscape-font-specification:'Heisei Kaku Gothic Std';fill:#a81118;fill-opacity:1;stroke:none;stroke-opacity:1;stroke-width:0.99971186;stroke-miterlimit:4;stroke-dasharray:none"
           d="M 1045.6831,1041.8747 H 931.60294 V 983.91466 H 1052.1231 V 956.31463 H 896.6429 v 206.69357 h 161.3068 v -27.6001 H 931.60294 v -65.6267 h 114.08016 z"
           id="path163" />
        <path
           style="color:#000000;-inkscape-font-specification:'Heisei Kaku Gothic Std';fill:#a81118;fill-opacity:1;stroke:none;stroke-opacity:1;stroke-width:0.99971186;stroke-miterlimit:4;stroke-dasharray:none"
           d="m 1094.4264,1149.2082 c 17.1733,10.7333 48.1467,18.7067 76.0534,18.7067 70.2267,0 92.0001,-34.6534 92.0001,-61.9468 0,-39.56 -25.7601,-54.28 -73.2934,-63.1734 -38.3334,-7.36 -53.6668,-17.48 -53.6668,-34.6534 0,-13.18663 11.9601,-30.05332 47.8401,-30.05332 28.8267,0 49.3734,8.89335 57.96,13.18668 l 10.7334,-26.68003 c -15.0267,-7.36 -36.1867,-13.18668 -68.0801,-13.18668 -50.2934,0 -84.3334,25.1467 -84.3334,59.18675 0,33.7334 22.08,49.68 75.1334,61.3334 40.7867,7.6667 51.8267,18.0933 51.8267,35.5734 0,19.9333 -18.7067,33.12 -51.52,33.12 -28.5201,0 -52.4401,-8.5867 -70.5334,-19.6267 z"
           id="path165" />
      </g>
      <g
         aria-label="V"
         id="text30270"
         style="font-size:386.667px;font-family:'Heisei Kaku Gothic Std';-inkscape-font-specification:'Heisei Kaku Gothic Std';fill:#a81118;fill-opacity:1;stroke:none;stroke-opacity:1;stroke-width:0.99971186;stroke-miterlimit:4;stroke-dasharray:none"
         transform="translate(205.47089,-194.65626)">
        <path
           style="color:#000000;-inkscape-font-specification:'Heisei Kaku Gothic Std';fill:#a81118;fill-opacity:1;stroke:none;stroke-opacity:1;stroke-width:0.99971186;stroke-miterlimit:4;stroke-dasharray:none"
           d="M 446.54131,1162.7083 556.35473,902.0947 h -46.7867 l -51.04005,126.8268 c -13.92001,34.0267 -26.29335,64.96 -35.18669,93.9601 h -0.77334 c -8.50667,-30.1601 -18.56001,-58.3868 -32.09336,-95.1201 l -24.71688,-72.4445 -41.37604,16.42664 71.50626,190.96466 z"
           id="path186"
           sodipodi:nodetypes="ccccccccccc" />
      </g>
      <g
         id="rect40924"
         style="fill:#a81118;fill-opacity:1;stroke:none;stroke-opacity:1;stroke-width:0.99971186;stroke-miterlimit:4;stroke-dasharray:none"
         transform="translate(205.47089,-194.65626)">
        <path
           style="color:#000000;fill:#a81118;fill-opacity:1;stroke-width:0.99971186;stroke:none;stroke-opacity:1;stroke-miterlimit:4;stroke-dasharray:none"
           d="m 510,902 h 760 v 36 H 510 Z"
           id="path351" />
        <path
           style="color:#000000;fill:#a81118;fill-opacity:1;stroke:none;stroke-opacity:1;stroke-width:0.99971186;stroke-miterlimit:4;stroke-dasharray:none"
           d="m 510,902 h 760 v 36 H 510 Z"
           id="path353" />
      </g>
      <ellipse
         style="fill:#a81118;fill-opacity:1;stroke:none;stroke-width:0.99971186;stroke-opacity:1;stroke-miterlimit:4;stroke-dasharray:none"
         id="path3337"
         cx="803.99078"
         cy="665.10114"
         rx="24.6"
         ry="25.837177" />
    </g>
  </g>
</svg>
