<?xml version="1.0" encoding="UTF-8" standalone="no"?>
<!-- Created with Inkscape (http://www.inkscape.org/) -->

<svg
   version="1.1"
   id="svg5426"
   width="1532"
   height="1532"
   viewBox="0 0 1532 1532"
   sodipodi:docname="logo_vtacik.svg"
   inkscape:version="1.1 (c68e22c387, 2021-05-23)"
   inkscape:export-filename="C:\Users\tutko\OneDrive\Dokumenty\webovska grafika\projekt\vtacik.png"
   inkscape:export-xdpi="96"
   inkscape:export-ydpi="96"
   xmlns:inkscape="http://www.inkscape.org/namespaces/inkscape"
   xmlns:sodipodi="http://sodipodi.sourceforge.net/DTD/sodipodi-0.dtd"
   xmlns="http://www.w3.org/2000/svg"
   xmlns:svg="http://www.w3.org/2000/svg">
  <defs
     id="defs5430">
    <inkscape:path-effect
       effect="spiro"
       id="path-effect4297"
       is_visible="true"
       lpeversion="1" />
  </defs>
  <sodipodi:namedview
     id="namedview5428"
     pagecolor="#ffffff"
     bordercolor="#666666"
     borderopacity="1.0"
     inkscape:pageshadow="2"
     inkscape:pageopacity="0.0"
     inkscape:pagecheckerboard="0"
     showgrid="false"
     inkscape:zoom="0.34861481"
     inkscape:cx="-124.77955"
     inkscape:cy="988.19669"
     inkscape:window-width="1920"
     inkscape:window-height="1001"
     inkscape:window-x="-9"
     inkscape:window-y="-9"
     inkscape:window-maximized="1"
     inkscape:current-layer="g5432"
     showguides="false"
     inkscape:snap-global="true"
     inkscape:snap-bbox="true"
     inkscape:guide-bbox="true">
    <inkscape:grid
       type="xygrid"
       id="grid115"
       empspacing="2"
       empcolor="#1e4fad"
       empopacity="0.16862745"
       dotted="false" />
    <sodipodi:guide
       position="1024,1132"
       orientation="0,-1"
       id="guide3015" />
    <sodipodi:guide
       position="1042,714"
       orientation="1,0"
       id="guide3017" />
    <sodipodi:guide
       position="1097,1019"
       orientation="1,0"
       id="guide3021" />
    <sodipodi:guide
       position="1097,1019"
       orientation="0,-1"
       id="guide3156" />
    <sodipodi:guide
       position="1059,965"
       orientation="0,-1"
       id="guide3576" />
    <sodipodi:guide
       position="1063,885"
       orientation="0,-1"
       id="guide3578" />
    <sodipodi:guide
       position="1064,830"
       orientation="0,-1"
       id="guide3618" />
    <sodipodi:guide
       position="1076,712"
       orientation="0,-1"
       id="guide3867" />
    <sodipodi:guide
       position="914,1036"
       orientation="1,0"
       id="guide17152" />
    <sodipodi:guide
       position="968,1024"
       orientation="1,0"
       id="guide17458" />
    <sodipodi:guide
       position="1064,1066"
       orientation="0,-1"
       id="guide17840" />
    <sodipodi:guide
       position="1166,1024"
       orientation="1,0"
       id="guide17880" />
    <sodipodi:guide
       position="1224,1036"
       orientation="1,0"
       id="guide18072" />
    <sodipodi:guide
       position="880,900"
       orientation="1,0"
       id="guide18074" />
    <sodipodi:guide
       position="1256,900"
       orientation="1,0"
       id="guide18076" />
    <sodipodi:guide
       position="948,888"
       orientation="1,0"
       id="guide18154" />
    <sodipodi:guide
       position="1192,888"
       orientation="1,0"
       id="guide18422" />
    <sodipodi:guide
       position="880,900"
       orientation="0,-1"
       id="guide18652" />
    <sodipodi:guide
       position="880,812"
       orientation="0,-1"
       id="guide18730" />
    <sodipodi:guide
       position="1188,888"
       orientation="1,0"
       id="guide19302" />
  </sodipodi:namedview>
  <g
     inkscape:groupmode="layer"
     inkscape:label="Image"
     id="g5432">
    <path
       style="fill:none;stroke:#a81118;stroke-width:30.65574803;stroke-linecap:butt;stroke-linejoin:miter;stroke-miterlimit:4;stroke-dasharray:none;stroke-opacity:1"
       d="M 102.0808,951.49112 C 88.072802,928.22284 88.407469,892.78813 90.669992,868.77921 c 5.371754,-39.64733 19.593048,-76.43984 36.484158,-108.88218 11.88027,-21.40959 26.98381,-42.69779 39.80163,-61.94032 3.17984,-4.77549 10.77144,-14.16164 10.77144,-14.16164 8.07594,-8.51762 15.41814,-20.5609 25.84149,-25.89501 19.62347,-6.50821 32.9194,22.95816 41.86281,36.51125 41.00391,59.20689 98.88685,118.33879 157.88934,156.33859 15.36112,10.31835 58.87799,31.11299 88.21052,40.51583 19.16287,6.0137 48.81667,9.95798 48.81667,9.95798 32.55606,4.48618 67.82886,6.74094 97.63872,5.69507 17.43531,-0.68376 49.57261,-1.25373 69.21916,-5.04738 18.32325,-3.53815 43.90089,-11.01305 61.10553,-18.31351 23.19975,-9.8444 46.97279,-22.73505 66.70011,-38.54209 23.68418,-18.97752 45.65189,-45.67294 60.08581,-66.34486 23.31768,-35.53588 35.4865,-72.88849 53.03335,-111.63959 10.69612,-23.82221 24.46631,-52.08898 36.63513,-75.17461 21.57034,-40.92135 49.48104,-89.85327 70.19474,-119.63249 12.5737,-18.07673 46.096,-72.07778 61.0367,-90.67708 27.3902,-34.09739 55.5407,-72.70821 86.7279,-105.68792 32.3386,-34.19741 68.0784,-70.45475 106.0527,-100.47027 41.8516,-33.08026 116.1785,-80.370154 135.986,-91.040405 18.3018,-9.859126 43.412,-4.575897 37.2662,12.304426 -62.0958,67.184879 -107.1838,117.199079 -159.1173,198.555299 -9.1058,14.26081 -36.8027,67.21343 -36.8027,67.21343 -37.7214,73.09042 -58.5566,140.75837 -74.4143,222.86217 -10.6307,54.61784 -25.7293,103.53878 -36.0398,143.06699 -13.1539,50.429 -27.2163,90.99654 -50.1509,148.00292 -3.7744,14.67386 -22.0714,44.97447 -36.8899,70.47098 -14.4728,24.90202 -31.0061,44.9302 -36.0918,51.19998 -10.5224,12.97233 -9.8056,13.56293 -6.1709,25.31073 7.2876,15.0879 25.6688,25.5957 46.2632,27.1822 20.7421,1.5978 26.2412,2.7586 27.6207,13.8977 3.0392,24.537 -11.0579,43.5709 -30.7966,58.9985 -19.6699,15.3736 -48.8112,24.7815 -69.7084,29.4454 -14.3228,3.1966 -30.24246,4.0883 -45.42158,5.5991 -20.11152,2.0017 -71.63319,2.41 -71.63319,2.41 0,0 -9.88221,14.4291 -13.84955,18.6832 -13.07346,14.0184 -43.59157,49.0068 -66.52682,67.2282 -11.90512,9.4582 -28.67377,21.8739 -47.24602,33.6569 -28.90506,18.3384 -73.63539,40.2427 -88.44682,47.4329 -50.74067,24.6273 -112.33081,38.1346 -146.5527,47.9538 -27.41413,7.8659 -77.27633,14.9777 -96.36525,18.7197 -28.92536,5.6701 -62.59182,17.4328 -94.23372,22.1061 -44.7761,6.8061 -97.37707,5.6882 -107.56479,4.6861 -17.14569,-1.6867 -55.08921,-8.2732 -88.76373,-21.4462 -32.06679,-12.5441 -59.82135,-29.8204 -60.823688,-44.9991 -0.625934,-9.4789 11.215728,-17.0818 38.044608,-22.0812 10.85915,-1.6725 79.89848,-20.1432 106.7063,-29.3984 41.21459,-14.2292 80.07609,-29.0453 118.75489,-45.0905 43.15071,-17.9001 87.41952,-38.3961 120.90261,-61.7358 20.64148,-14.3884 30.84869,-23.5027 38.58702,-47.2542 8.40158,-25.7872 -1.07683,-58.5818 -17.97434,-79.4375 -11.96418,-14.7668 -21.6015,-23.6466 -37.86597,-33.6906 -20.62224,-10.3339 -40.87713,-15.7968 -62.71399,-23.8541 -32.86188,-13.11896 -70.81827,-24.00048 -100.5232,-32.19807 -26.55346,-6.34928 -55.57857,-13.70479 -79.91803,-17.13655 -21.11727,-2.81227 -35.23207,-5.96624 -63.58236,-6.41512 -25.31552,-0.40083 -38.99977,4.77841 -50.64028,-5.10684 z"
       sodipodi:nodetypes="cccccccccccsssccssssssccccscsscssssscssscsscssscsssssccccsc"
       id="path5488"
       inkscape:export-filename="C:\Users\tutko\OneDrive\Dokumenty\webovska grafika\projekt\logo\50px.png"
       inkscape:export-xdpi="96"
       inkscape:export-ydpi="96" />
  </g>
</svg>
